C:/Users/johnp/Downloads/ffmpeg-2023-02-09-git-159b028df5-full_build/ffmpeg-2023-02-09-git-159b028df5-full_build/bin/ffmpeg.exe -hide_banner -y -y -r 12 -start_number 0 -start_number_range 1 -i C:/Users/johnp/Pictures/game dev/player_preview%04d.png -i C:/Users/johnp/Documents/Godot/elevator-blastin/ElevatorBlastin/entities/player/KritaTempPalettegen_%06d.png -lavfi [0:v][1:v]paletteuse=dither=sierra2_4a:diff_mode=none -f gif -loop 0 -gifflags +transdiff C:/Users/johnp/Documents/Godot/elevator-blastin/ElevatorBlastin/entities/player/player_animation.gif
=====================================================
Input #0, image2, from 'C:/Users/johnp/Pictures/game dev/player_preview%04d.png':
  Duration: 00:00:01.40, start: 0.000000, bitrate: N/A
  Stream #0:0: Video: png, rgba(pc), 60x60 [SAR 2834:2834 DAR 1:1], 25 fps, 25 tbr, 25 tbn
Input #1, image2, from 'C:/Users/johnp/Documents/Godot/elevator-blastin/ElevatorBlastin/entities/player/KritaTempPalettegen_%06d.png':
  Duration: 00:00:00.04, start: 0.000000, bitrate: N/A
  Stream #1:0: Video: png, rgba(pc), 16x16 [SAR 1:1 DAR 1:1], 25 fps, 25 tbr, 25 tbn
Stream mapping:
  Stream #0:0 (png) -> paletteuse
  Stream #1:0 (png) -> paletteuse
  paletteuse:default -> Stream #0:0 (gif)
Press [q] to stop, [?] for help
[image2 @ 000001b1c3c243c0] Thread message queue blocking; consider raising the thread_queue_size option (current value: 8)
Output #0, gif, to 'C:/Users/johnp/Documents/Godot/elevator-blastin/ElevatorBlastin/entities/player/player_animation.gif':
  Metadata:
    encoder         : Lavf59.38.100
  Stream #0:0: Video: gif, pal8(pc, gbr/unknown/unknown, progressive), 60x60 [SAR 1:1 DAR 1:1], q=2-31, 200 kb/s, 12 fps, 100 tbn
    Metadata:
      encoder         : Lavc59.63.100 gif
frame=    0 fps=0.0 q=-0.0 size=       0kB time=00:00:00.00 bitrate=N/A speed=   0x    frame=   35 fps=0.0 q=-0.0 Lsize=      12kB time=00:00:02.83 bitrate=  34.2kbits/s speed=53.9x    
video:12kB audio:0kB subtitle:0kB other streams:0kB global headers:0kB muxing overhead: 0.165769%
